
<svg xmlns="http://www.w3.org/2000/svg" width="64" height="64" viewBox="0 0 64 64">
  <defs>
    <linearGradient id="gradient" x1="0%" y1="0%" x2="100%" y2="100%">
      <stop offset="0%" stop-color="#145DA0" />
      <stop offset="100%" stop-color="#F7CA18" />
    </linearGradient>
  </defs>
  <rect x="10" y="10" width="44" height="44" rx="8" fill="#0C2D48" />
  <path d="M20 25a5 5 0 0110 0v14a5 5 0 01-10 0V25z" fill="#F7CA18" />
  <path d="M32 20a3 3 0 100 6 3 3 0 000-6z" fill="#F7CA18" />
  <path d="M42 25a5 5 0 00-10 0v9.5a5 5 0 0010 0V25z" fill="#F7CA18" />
  <path d="M20 39.5a5 5 0 005 5h14a5 5 0 005-5v-5a5 5 0 00-5-5h-4" fill="none" stroke="#F7CA18" stroke-width="3" />
</svg>
